<svg width="17" height="17" viewBox="0 0 17 17" fill="none" xmlns="http://www.w3.org/2000/svg">
<path fill-rule="evenodd" clip-rule="evenodd" d="M4.81527 1.275C2.66477 1.275 1.27502 2.74805 1.27502 5.0286V11.9714C1.27502 14.2519 2.66477 15.725 4.81527 15.725H12.1831C14.3344 15.725 15.725 14.2519 15.725 11.9714V5.0286C15.725 2.74805 14.3344 1.275 12.1839 1.275H4.81527ZM12.1831 17H4.81525C1.9346 17 0 14.9787 0 11.9714V5.0286C0 2.0213 1.9346 0 4.81525 0H12.1839C15.0646 0 17 2.0213 17 5.0286V11.9714C17 14.9787 15.0646 17 12.1831 17V17Z" fill="black"/>
<path fill-rule="evenodd" clip-rule="evenodd" d="M7.34458 10.9357C7.18541 10.9357 7.02458 10.8749 6.90291 10.7524L4.92458 8.77492C4.68041 8.53075 4.68041 8.13575 4.92458 7.89158C5.16875 7.64742 5.56375 7.64742 5.80791 7.89158L7.34458 9.42658L10.8579 5.91408C11.1021 5.66992 11.4971 5.66992 11.7412 5.91408C11.9854 6.15825 11.9854 6.55325 11.7412 6.79742L7.78625 10.7524C7.66458 10.8749 7.50458 10.9357 7.34458 10.9357" fill="black"/>
</svg>
