<svg width="17" height="17" viewBox="0 0 17 17" fill="none" xmlns="http://www.w3.org/2000/svg">
<path fill-rule="evenodd" clip-rule="evenodd" d="M4.81527 1.275C2.66477 1.275 1.27502 2.74805 1.27502 5.0286V11.9714C1.27502 14.2519 2.66477 15.725 4.81527 15.725H12.1831C14.3344 15.725 15.725 14.2519 15.725 11.9714V5.0286C15.725 2.74805 14.3344 1.275 12.1839 1.275H4.81527ZM12.1831 17H4.81525C1.9346 17 0 14.9787 0 11.9714V5.0286C0 2.0213 1.9346 0 4.81525 0H12.1839C15.0646 0 17 2.0213 17 5.0286V11.9714C17 14.9787 15.0646 17 12.1831 17V17Z" fill="black"/>
</svg>
